<?xml version="1.0" standalone="no"?>
<!DOCTYPE svg PUBLIC "-//W3C//DTD SVG 20010904//EN"
 "http://www.w3.org/TR/2001/REC-SVG-20010904/DTD/svg10.dtd">
<svg version="1.0" xmlns="http://www.w3.org/2000/svg"
 width="651.000000pt" height="651.000000pt" viewBox="0 0 651.000000 651.000000"
 preserveAspectRatio="xMidYMid meet">
<metadata>
Created by potrace 1.14, written by Peter Selinger 2001-2017
</metadata>
<g transform="translate(0.000000,651.000000) scale(0.100000,-0.100000)"
fill="#000000" stroke="none">
<path d="M4679 6460 c-20 -11 -53 -44 -79 -82 -24 -35 -72 -92 -105 -128 -68
-71 -101 -122 -108 -161 -5 -25 -37 -105 -57 -141 -6 -10 -10 -26 -10 -35 0
-10 -7 -27 -15 -37 -8 -11 -15 -28 -15 -37 0 -10 -3 -19 -8 -21 -4 -1 -18 -16
-30 -33 -35 -45 -190 -203 -262 -265 -34 -30 -81 -72 -104 -93 -75 -69 -252
-178 -315 -192 -56 -14 -157 -35 -164 -35 -8 0 33 56 73 102 28 32 40 47 40
53 0 3 27 41 60 84 33 43 60 84 60 90 0 6 4 11 9 11 5 0 13 9 16 20 4 12 28
53 54 93 26 40 70 108 96 152 27 44 63 98 79 120 17 21 36 48 42 60 93 173
128 216 276 335 56 45 62 58 41 94 -16 29 -76 24 -153 -13 -115 -54 -176 -119
-260 -278 -24 -46 -48 -83 -53 -83 -5 0 -17 8 -26 19 -62 71 -261 98 -378 50
-85 -34 -210 -106 -276 -158 -51 -40 -207 -228 -207 -250 0 -10 -39 -56 -43
-50 -1 2 -13 26 -25 53 -42 89 -151 185 -227 200 -46 9 -111 8 -180 -2 -16 -3
-140 -86 -194 -129 -89 -73 -116 -102 -144 -156 -34 -68 -42 -115 -40 -244 1
-90 5 -109 33 -175 42 -95 114 -219 148 -253 45 -45 103 -80 182 -109 41 -15
82 -29 90 -31 8 -2 42 -11 75 -19 32 -9 75 -16 95 -16 43 0 159 27 176 41 8 6
13 5 17 -5 4 -9 2 -18 -3 -21 -4 -3 -14 -29 -20 -58 -11 -51 -12 -136 -5 -365
4 -108 3 -112 -15 -102 -11 6 -43 39 -70 73 -105 128 -126 150 -169 178 -55
36 -111 38 -161 8 -40 -25 -53 -40 -78 -89 -38 -77 -7 -232 62 -307 14 -15 23
-29 21 -31 -2 -2 -50 -6 -107 -8 -137 -5 -228 -29 -273 -70 -32 -29 -35 -36
-35 -90 0 -117 35 -184 138 -260 12 -8 4 -16 -39 -39 -157 -81 -282 -227 -304
-355 -7 -39 -6 -120 1 -131 2 -4 -18 -27 -46 -51 -46 -39 -130 -138 -130 -153
0 -3 -5 -11 -10 -18 -31 -37 -132 -229 -136 -256 0 -4 -10 -37 -21 -76 -47
-154 -58 -325 -30 -465 22 -108 90 -194 150 -190 47 4 58 0 53 -17 -9 -30 -27
-145 -30 -190 -2 -28 11 -179 19 -218 42 -214 141 -392 248 -446 21 -11 61
-21 88 -22 51 -2 57 -7 66 -61 10 -59 82 -223 122 -276 14 -19 33 -43 41 -54
63 -82 182 -178 242 -193 52 -13 165 -7 192 10 25 17 26 17 27 -3 1 -11 2 -23
4 -27 1 -5 5 -25 10 -46 15 -73 116 -186 213 -239 76 -41 129 -42 202 -5 67
34 94 57 143 121 20 27 37 43 37 36 0 -20 33 -83 60 -114 73 -82 162 -89 323
-27 59 24 107 46 107 51 0 4 10 10 23 14 48 12 152 138 185 221 6 17 14 47 18
68 7 44 7 44 64 52 48 7 139 53 180 91 14 13 34 31 45 41 66 57 144 189 187
313 10 30 18 56 18 58 -2 17 8 18 55 7 30 -7 56 -11 57 -10 2 2 17 5 34 8 17
3 44 12 61 20 36 19 123 113 123 133 0 8 4 14 8 14 11 0 117 204 127 245 20
74 27 132 27 218 0 79 -9 214 -18 262 -10 51 -9 70 2 70 46 0 121 117 149 230
21 83 23 268 5 365 -7 36 -13 70 -14 77 -1 7 -5 16 -9 19 -4 4 -7 16 -7 26 0
32 -84 191 -144 273 -32 43 -88 107 -124 143 -36 36 -68 74 -70 86 -2 12 -4
30 -5 41 -10 82 -99 305 -152 377 -31 42 -110 113 -152 137 -14 7 -13 13 8 47
82 134 115 254 85 313 -16 30 -31 36 -81 31 -11 -1 -74 -28 -140 -60 -107 -51
-170 -81 -185 -85 -3 -1 -18 -5 -35 -9 -16 -4 -41 -12 -55 -17 -14 -4 -38 -11
-55 -13 -26 -4 -28 -3 -11 7 31 19 149 138 192 193 56 71 121 209 129 271 16
129 4 180 -50 213 -81 50 -217 1 -261 -95 -8 -16 -18 -37 -23 -45 -5 -8 -27
-54 -50 -101 -42 -89 -132 -193 -194 -225 -45 -24 -103 -22 -130 4 -21 22 -22
29 -19 170 2 128 8 267 12 267 1 0 3 25 5 55 4 52 8 84 20 140 8 38 17 119 19
169 1 40 4 46 41 67 22 13 48 23 58 24 9 0 17 4 17 9 0 5 16 15 35 21 19 6 35
16 35 21 0 5 6 9 13 9 6 0 28 15 47 33 19 18 67 59 105 92 39 32 135 124 215
205 80 80 163 162 185 181 57 50 127 144 160 214 41 90 168 255 195 255 14 0
170 159 171 173 0 7 2 24 3 40 1 15 -2 27 -7 27 -5 0 -7 5 -5 12 6 18 -56 48
-110 52 -32 3 -59 -2 -83 -14z m-1095 -526 c82 -56 70 -190 -25 -266 -43 -34
-92 -42 -135 -22 -51 24 -76 15 -101 -36 -24 -46 -30 -104 -13 -115 8 -5 77
-13 128 -15 7 0 0 -14 -15 -31 -16 -17 -41 -45 -56 -62 -16 -18 -43 -50 -60
-73 -17 -23 -48 -51 -69 -63 l-37 -21 -36 37 c-68 74 -100 219 -70 321 8 26
15 52 16 57 4 34 77 149 112 179 69 59 157 127 157 121 0 -2 10 0 23 5 12 5
50 9 84 8 48 -1 71 -7 97 -24z m-994 -264 c0 -5 15 -13 33 -19 65 -22 91 -87
58 -144 -20 -36 -38 -45 -76 -41 -124 14 -147 12 -172 -14 -25 -27 -30 -71
-11 -90 7 -7 9 -12 6 -12 -3 0 7 -24 21 -52 24 -47 33 -55 77 -69 86 -28 140
-17 246 54 29 19 48 40 48 51 0 29 26 2 34 -36 9 -48 50 -93 132 -149 42 -28
74 -52 72 -54 -6 -6 -164 -83 -205 -100 -60 -25 -268 -26 -338 -1 -109 38
-176 105 -225 223 -36 87 -36 104 5 224 14 41 27 79 28 85 8 34 59 91 112 125
31 21 53 26 98 27 31 0 57 -4 57 -8z m803 -711 c-1 -30 -4 -153 -8 -274 -6
-198 -9 -274 -13 -327 -1 -12 -10 -18 -25 -18 -13 0 -33 -9 -46 -21 -26 -24
-28 -23 -35 14 -8 45 -17 69 -47 132 -35 71 -78 105 -138 108 -32 1 -41 5 -42
19 -1 27 -1 68 0 71 1 1 4 25 5 52 9 122 41 177 161 272 38 31 43 33 115 30
l75 -3 -2 -55z"/>
</g>
</svg>
